<?xml version="1.0" encoding="utf-8"?>
<!-- Generator: Adobe Illustrator 13.0.0, SVG Export Plug-In . SVG Version: 6.00 Build 14948)  -->
<!DOCTYPE svg PUBLIC "-//W3C//DTD SVG 1.1//EN" "http://www.w3.org/Graphics/SVG/1.1/DTD/svg11.dtd">
<svg version="1.1"
	 id="svg2985" xmlns:dc="http://purl.org/dc/elements/1.1/" xmlns:rdf="http://www.w3.org/1999/02/22-rdf-syntax-ns#" xmlns:cc="http://creativecommons.org/ns#" xmlns:svg="http://www.w3.org/2000/svg" sodipodi:docname="retropie.svg" inkscape:version="0.48.5 r10040" xmlns:inkscape="http://www.inkscape.org/namespaces/inkscape" xmlns:sodipodi="http://sodipodi.sourceforge.net/DTD/sodipodi-0.dtd"
	 xmlns="http://www.w3.org/2000/svg" xmlns:xlink="http://www.w3.org/1999/xlink" x="0px" y="0px" width="724.266px"
	 height="142.988px" viewBox="-11 -11.999 724.266 142.988" enable-background="new -11 -11.999 724.266 142.988"
	 xml:space="preserve">
<sodipodi:namedview  id="namedview2987" inkscape:window-maximized="1" fit-margin-bottom="0" fit-margin-right="0" inkscape:current-layer="svg2985" inkscape:window-y="-8" inkscape:window-x="-8" inkscape:window-height="706" inkscape:window-width="1366" inkscape:pageshadow="2" inkscape:pageopacity="0" guidetolerance="10" inkscape:cy="134.79245" gridtolerance="10" pagecolor="#ffffff" fit-margin-left="0" inkscape:cx="526.78359" objecttolerance="10" showgrid="false" bordercolor="#666666" borderopacity="1" fit-margin-top="0" inkscape:zoom="0.53298174">
	</sodipodi:namedview>
<linearGradient id="path2997_2_" gradientUnits="userSpaceOnUse" x1="351.1323" y1="-10" x2="351.1323" y2="136">
	<stop  offset="0.0051" style="stop-color:#DB5224"/>
	<stop  offset="0.4619" style="stop-color:#BF000D"/>
	<stop  offset="1" style="stop-color:#700008"/>
</linearGradient>
<path id="path2997_1_" inkscape:connector-curvature="0" fill="url(#path2997_2_)" d="M138.032,127.621
	c-20.158-5.124-34.294-20.982-37.042-41.555c-3.194-23.91,11.275-46.595,34.245-53.689c7.221-2.23,20.087-2.674,27.75-0.957
	c12.209,2.736,25.717,13.459,31.213,24.779c2.933,6.04,5.501,16.388,5.529,22.275c0.034,7.078,1.741,6.67-27.804,6.67
	c-29.984,0-27.821,0.617-27.821-7.953c0-8.056,0.698-8.643,10.284-8.643c7.59,0,8.263-0.157,8.263-1.937
	c0-1.065-1.252-3.338-2.782-5.05c-2.41-2.698-3.445-3.124-7.736-3.188c-3.537-0.053-5.743,0.499-7.712,1.929
	c-10.096,7.332-9.755,29.477,0.559,36.311c4.093,2.711,7.343,2.777,12.069,0.244c2.003-1.073,4.193-1.93,4.866-1.902
	c1.452,0.059,18.795,20.988,18.795,22.68c0,1.627-9.747,7.292-15.619,9.078C157.958,128.88,144.737,129.326,138.032,127.621z
	 M375.454,128.005c-12.105-2.346-27.432-13.768-33.401-24.889c-7.652-14.256-7.538-34.201,0.274-47.856
	c6.086-10.638,17.666-19.564,30.131-23.225c12.492-3.669,29.647-1.355,40.308,5.436c6.019,3.835,14.821,13.403,17.876,19.43
	c9.631,19.006,6.101,41.898-8.779,56.936C409.701,126.127,392.638,131.337,375.454,128.005z M391.676,92.344
	c12.521-5.94,9.585-24.949-4.092-26.491c-8.283-0.934-14.136,4.146-14.836,12.877c-0.478,5.959,2.251,10.799,7.605,13.489
	C384.582,94.343,387.397,94.375,391.676,92.344L391.676,92.344z M649.543,127.621c-20.158-5.124-34.295-20.982-37.043-41.555
	c-3.193-23.91,11.275-46.595,34.245-53.689c7.221-2.23,20.087-2.674,27.75-0.957c12.209,2.736,25.717,13.459,31.213,24.779
	c2.933,6.04,5.502,16.388,5.529,22.275c0.034,7.078,1.741,6.67-27.804,6.67c-29.983,0-27.82,0.617-27.82-7.953
	c0-8.056,0.698-8.643,10.284-8.643c7.59,0,8.263-0.157,8.263-1.937c0-1.065-1.252-3.338-2.781-5.05
	c-2.41-2.698-3.445-3.124-7.736-3.188c-3.537-0.053-5.743,0.499-7.712,1.929c-10.096,7.332-9.755,29.477,0.559,36.311
	c4.094,2.711,7.343,2.777,12.069,0.244c2.003-1.073,4.193-1.93,4.866-1.902c1.451,0.059,18.794,20.988,18.794,22.68
	c0,1.627-9.746,7.292-15.618,9.078C669.468,128.88,656.248,129.326,649.543,127.621z M242.695,125.808
	c-12.14-4.299-21.183-11.869-26.311-22.027c-5.621-11.135-5.872-13.799-5.888-62.321l-0.015-44.171h17.549h17.549l0.266,17.815
	l0.266,17.815l7.292,0.291c4.315,0.172,7.598,0.77,8.039,1.464c0.41,0.645,0.752,8.697,0.761,17.892
	c0.011,12.488-0.304,16.984-1.246,17.765c-0.693,0.576-4.317,1.18-8.053,1.34l-6.792,0.294l0.312,4.816
	c0.542,8.38,3.16,11.735,10.638,13.643l4.669,1.19l0.266,18.24l0.266,18.24l-6.611-0.021
	C251.286,128.06,246.884,127.291,242.695,125.808L242.695,125.808z M-8.669,124.943c-0.295-1.219-0.416-30.33-0.268-64.691
	l0.27-62.475l29.07-0.259C52.074-2.764,57.104-2.206,67.58,2.75c11.047,5.226,19.993,17.843,21.734,30.656
	c1.797,13.219-1.789,24.811-10.687,34.546c-2.645,2.895-4.809,5.891-4.809,6.66c0,0.768,4.608,12.505,10.241,26.082
	c5.633,13.578,10,25.077,9.704,25.555c-0.295,0.479-9.232,0.869-19.861,0.869H54.579l-3.96-8.541
	c-2.178-4.698-6.415-14.098-9.415-20.889l-5.455-12.346V69.105c0-12.12,0.309-16.34,1.22-16.646c0.671-0.225,3.085-0.887,5.365-1.47
	c5.622-1.439,8.057-4.25,8.057-9.299c0-3.078-0.599-4.602-2.517-6.405c-2.212-2.08-3.423-2.366-10.006-2.366h-7.488l-0.488,46.856
	l-0.488,46.855l-18.768,0.266l-18.767,0.265L-8.669,124.943L-8.669,124.943z M280.463,126.49
	c-0.371-0.369-0.668-14.107-0.662-30.527c0.009-21.748,0.365-31.181,1.313-34.74c4.051-15.209,13.105-25.18,26.578-29.267
	c5.081-1.541,20.537-1.991,22.637-0.658c0.949,0.603,1.18,5.039,0.976,18.776l-0.267,17.987l-4.7-0.337
	c-4.91-0.353-7.33,0.935-9.788,5.208c-0.741,1.286-1.299,10.879-1.618,27.831l-0.488,25.868l-16.653,0.267
	C288.63,127.043,280.833,126.861,280.463,126.49L280.463,126.49z M451.29,126.49c-0.369-0.371-0.672-21.049-0.672-45.953
	c0-51.386,0.328-54.517,6.744-64.444c15.914-24.623,52.862-29.652,74.565-10.15c10.146,9.118,14.919,21.449,14.09,36.403
	c-0.595,10.734-1.527,14.149-5.818,21.29c-6.977,11.61-19.416,17.856-35.878,18.013l-8.312,0.079l-0.267-16.79l-0.267-16.791
	l3.195-0.606c5.826-1.105,8.887-5.171,7.875-10.464c-0.796-4.164-3.357-5.778-8.627-5.436c-3.769,0.245-5.027,0.82-6.692,3.057
	c-1.995,2.68-2.063,3.959-2.538,47.343l-0.488,44.59l-18.12,0.266C460.115,127.041,451.659,126.859,451.29,126.49L451.29,126.49z
	 M561.598,126.49c-0.369-0.369-0.673-21.685-0.673-47.365V32.431h17.581h17.58l-0.254,47.1l-0.253,47.1l-16.654,0.267
	C569.766,127.043,561.969,126.861,561.598,126.49z M570.102,21.785c-5.601-2.544-8.508-6.995-8.942-13.695
	c-0.438-6.752,1.69-11.065,7.493-15.178c3.436-2.436,5.047-2.912,9.844-2.912s6.408,0.477,9.844,2.912
	c5.803,4.113,7.932,8.426,7.493,15.178c-0.614,9.457-7.382,15.512-17.337,15.512C576.08,23.603,572.303,22.785,570.102,21.785
	L570.102,21.785z"/>
<linearGradient id="SVGID_1_" gradientUnits="userSpaceOnUse" x1="351.1323" y1="-13.0044" x2="351.1323" y2="132.9956">
	<stop  offset="0" style="stop-color:#8C0000"/>
	<stop  offset="1" style="stop-color:#240000"/>
</linearGradient>
<path fill="url(#SVGID_1_)" d="M385.633,130.99c-3.493,0-7.026-0.337-10.556-1.021l0,0l0.379-1.963l0.381-1.965
	c3.283,0.636,6.562,0.948,9.796,0.948l0,0c13.063-0.004,25.427-5.083,34.81-14.558l0,0c8.91-9.011,13.576-20.949,13.578-33.094l0,0
	c0-7.302-1.688-14.678-5.16-21.531l0,0c-2.731-5.509-11.597-15.163-17.167-18.647l0,0c-6.815-4.36-16.791-6.871-26.197-6.857l0,0
	c-4.416,0-8.702,0.545-12.472,1.652l0,0c-11.953,3.492-23.192,12.178-28.96,22.302l0,0c-3.75,6.54-5.676,14.748-5.672,23.026l0,0
	c-0.004,8.071,1.826,16.193,5.424,22.889l0,0c5.512,10.453,20.722,21.775,32.021,23.87l0,0l-0.381,1.965l-0.381,1.963
	c-12.913-2.594-28.353-14.115-34.782-25.906l0,0c-3.959-7.382-5.898-16.111-5.902-24.78l0,0c0.004-8.891,2.041-17.734,6.202-25.013
	l0,0c6.406-11.155,18.327-20.322,31.304-24.151l0,0c4.212-1.237,8.856-1.817,13.6-1.817l0,0c10.1,0.014,20.647,2.597,28.346,7.485
	l0,0c6.468,4.184,15.207,13.667,18.586,20.213l0,0c3.761,7.42,5.593,15.42,5.593,23.339l0,0
	c0.002,13.167-5.066,26.131-14.735,35.906l0,0c-10.111,10.225-23.537,15.746-37.636,15.746l0,0
	C385.645,130.99,385.638,130.99,385.633,130.99L385.633,130.99z M649.053,129.56l0.492-1.939l0.492-1.938
	c2.493,0.639,6.279,0.982,10.273,0.979l0,0c5.665,0.007,11.853-0.681,15.709-1.862l0,0c3.665-1.1,9.461-4.103,12.519-6.271l0,0
	c0.57-0.391,1.053-0.78,1.381-1.071l0,0c-0.205-0.323-0.479-0.731-0.807-1.193l0,0c-0.884-1.254-2.151-2.924-3.594-4.751l0,0
	c-2.888-3.656-6.489-7.956-9.242-11.021l0,0c-1.365-1.542-2.64-2.837-3.274-3.418l0,0c-0.228,0.071-0.509,0.172-0.817,0.295l0,0
	c-0.79,0.311-1.766,0.76-2.682,1.252l0,0c-2.453,1.311-4.726,2.078-7.044,2.08l0,0c-2.466,0.005-4.779-0.895-7.073-2.422l0,0
	c-6.104-4.123-8.803-12.213-8.833-20.119l0,0c0.025-7.57,2.506-15.275,8.201-19.475l0,0c2.258-1.671,4.964-2.339,8.431-2.317l0,0
	c0.169,0,0.334,0.002,0.49,0.006l0,0c2.191,0.039,3.77,0.135,5.306,0.758l0,0c1.541,0.636,2.647,1.704,3.892,3.097l0,0
	c0.877,0.982,1.642,2.078,2.226,3.136l0,0c0.567,1.094,1.021,1.99,1.063,3.247l0,0c-0.009,0.541-0.006,1.325-0.573,2.186l0,0
	c-0.591,0.854-1.487,1.224-2.254,1.397l0,0c-1.573,0.347-3.603,0.342-7.434,0.353l0,0c-2.671-0.002-4.605,0.056-5.832,0.266l0,0
	c-1.265,0.225-1.588,0.492-1.78,0.734l0,0c-0.142,0.184-0.317,0.541-0.445,1.252l0,0c-0.176,0.936-0.231,2.408-0.228,4.392l0,0
	c0,1.126-0.038,2.076-0.038,2.821l0,0c-0.015,1.13,0.12,1.751,0.219,1.888l0,0c0.079,0.111,0.096,0.263,1.033,0.559l0,0
	c1.848,0.561,6.391,0.713,14.74,0.693l0,0c2.821,0.002,6.087-0.007,9.867-0.009l0,0c3.054,0,5.774,0.002,8.197,0.002l0,0
	c10.297,0.034,15.341-0.164,16.912-0.8l0,0c0.518-0.199,0.531-0.291,0.552-0.313l0,0c0.039-0.013,0.183-0.454,0.17-1.469l0,0
	c0-0.563-0.024-1.263-0.028-2.08l0,0c0.009-5.381-2.551-15.764-5.329-21.411l0,0c-5.104-10.661-18.381-21.197-29.853-23.702l0,0
	c-2.941-0.665-6.87-1.003-10.924-1.001l0,0c-5.781-0.007-11.873,0.697-15.796,1.917l0,0c-19.994,6.171-33.277,24.665-33.277,45.178
	l0,0c0,2.093,0.14,4.21,0.424,6.337l0,0c2.669,19.8,16.151,34.926,35.553,39.882l0,0l-0.492,1.938L649.053,129.56
	c-20.913-5.293-35.704-21.885-38.532-43.229l0,0c-0.308-2.301-0.46-4.596-0.46-6.866l0,0c0-22.246,14.402-42.299,36.096-48.998l0,0
	c4.565-1.403,10.869-2.091,16.978-2.097l0,0c4.275,0.002,8.424,0.342,11.801,1.098l0,0c12.947,2.969,26.688,13.88,32.575,25.858l0,0
	c3.087,6.43,5.666,16.746,5.729,23.141l0,0c0.002,0.75,0.026,1.435,0.026,2.098l0,0c-0.016,1.149-0.024,2.363-0.792,3.615l0,0
	c-0.799,1.259-2.155,1.907-3.669,2.247l0,0c-3.075,0.689-7.932,0.706-17.171,0.72l0,0c-2.423,0-5.146-0.003-8.197,0l0,0
	c-3.773-0.003-7.038,0.006-9.867,0.006l0,0c-9.503-0.045-13.901,0.007-16.904-1.229l0,0c-1.008-0.43-1.911-1.192-2.401-2.146l0,0
	c-0.656-1.275-0.672-2.498-0.687-3.765l0,0c0-0.869,0.038-1.789,0.038-2.821l0,0c0.007-2.301,0.039-4.064,0.402-5.638l0,0
	c0.323-1.552,1.276-3.086,2.766-3.85l0,0c0.965-0.519,2.019-0.767,3.213-0.921l0,0c1.594-0.203,3.484-0.233,5.904-0.235l0,0
	c3.249,0.027,5.296-0.068,6.187-0.183l0,0c-0.008-0.022-0.016-0.046-0.024-0.069l0,0c-0.094-0.26-0.257-0.614-0.469-1.002l0,0
	c-0.426-0.772-1.051-1.67-1.703-2.399l0,0c-1.167-1.304-1.783-1.798-2.437-2.065l0,0c-0.654-0.28-1.742-0.43-3.848-0.456l0,0
	c-0.147-0.002-0.287-0.004-0.422-0.004l0,0c-3.077,0.021-4.573,0.479-6.076,1.552l0,0c-4.176,2.969-6.579,9.518-6.556,16.24l0,0
	c-0.027,7.028,2.606,13.918,7.042,16.784l0,0c1.924,1.265,3.375,1.751,4.864,1.757l0,0c1.404,0.002,3.022-0.466,5.156-1.607l0,0
	c1.058-0.566,2.145-1.069,3.104-1.446l0,0c1.004-0.365,1.644-0.646,2.649-0.694l0,0v-0.001c0.011,0,0.038,0,0.086,0l0,0
	c0.092,0.002,0.261,0.013,0.458,0.062l0,0l-0.001,0.002c0.509,0.104,0.667,0.274,0.889,0.388l0,0
	c0.24,0.158,0.439,0.319,0.657,0.505l0,0c0.428,0.366,0.905,0.831,1.458,1.396l0,0c1.102,1.13,2.484,2.658,3.998,4.395l0,0
	c3.026,3.471,6.553,7.761,9.177,11.172l0,0c1.762,2.303,3.069,4.097,3.712,5.313l0,0c0.162,0.387,0.363,0.566,0.419,1.451l0,0
	c-0.074,1.205-0.561,1.622-0.933,2.107l0,0c-0.409,0.461-0.887,0.878-1.449,1.321l0,0c-1.119,0.875-2.577,1.823-4.221,2.78l0,0
	c-3.287,1.906-7.247,3.808-10.434,4.783l0,0c-4.512,1.361-10.882,2.026-16.874,2.035l0,0
	C656.085,130.658,652.096,130.326,649.053,129.56L649.053,129.56z M137.542,129.56l0.493-1.939L137.542,129.56
	c-20.913-5.293-35.704-21.885-38.531-43.229l0,0c-0.308-2.304-0.46-4.598-0.46-6.868l0,0c0-22.244,14.404-42.299,36.096-48.996l0,0
	c4.565-1.403,10.868-2.091,16.977-2.097l0,0c4.276,0.002,8.424,0.342,11.802,1.098l0,0c12.946,2.969,26.687,13.88,32.575,25.858l0,0
	c3.088,6.432,5.665,16.746,5.729,23.141l0,0c0.002,0.75,0.028,1.435,0.028,2.098l0,0c-0.015,1.149-0.026,2.365-0.792,3.617l0,0
	c-0.801,1.257-2.158,1.907-3.671,2.247l0,0c-3.075,0.688-7.93,0.704-17.169,0.718l0,0c-2.425,0-5.146-0.003-8.2,0l0,0
	c-3.771-0.003-7.037,0.006-9.864,0.008l0,0c-9.503-0.047-13.903,0.005-16.904-1.23l0,0c-1.008-0.43-1.913-1.192-2.403-2.146l0,0
	c-0.655-1.277-0.672-2.498-0.685-3.765l0,0c0-0.865,0.037-1.785,0.037-2.821l0,0c0.006-2.301,0.039-4.064,0.4-5.638l0,0
	c0.326-1.552,1.276-3.086,2.768-3.85l0,0c0.965-0.519,2.018-0.767,3.21-0.921l0,0c1.594-0.203,3.486-0.233,5.905-0.235l0,0
	c3.251,0.027,5.298-0.068,6.188-0.183l0,0c-0.007-0.022-0.016-0.046-0.024-0.069l0,0c-0.094-0.26-0.257-0.614-0.469-1l0,0
	c-0.423-0.774-1.051-1.672-1.706-2.401l0,0c-1.165-1.304-1.781-1.798-2.432-2.065l0,0c-0.657-0.28-1.742-0.43-3.85-0.456l0,0
	c-0.148-0.002-0.287-0.004-0.419-0.004l0,0c-3.078,0.021-4.574,0.479-6.079,1.552l0,0c-4.176,2.969-6.579,9.518-6.553,16.24l0,0
	c-0.03,7.028,2.604,13.918,7.042,16.784l0,0c1.922,1.265,3.373,1.751,4.862,1.757l0,0c1.406,0.002,3.022-0.466,5.156-1.607l0,0
	c1.057-0.566,2.145-1.069,3.104-1.446l0,0c1.003-0.365,1.644-0.646,2.649-0.694l0,0v-0.001c0.011,0,0.039,0,0.085,0l0,0
	c0.092,0.002,0.261,0.013,0.458,0.062l0,0l0,0.002c0.508,0.104,0.667,0.274,0.889,0.388l0,0c0.24,0.158,0.438,0.319,0.657,0.505l0,0
	c0.428,0.366,0.905,0.831,1.46,1.396l0,0c1.1,1.13,2.482,2.658,3.998,4.395l0,0c3.024,3.471,6.551,7.761,9.175,11.172l0,0
	c1.761,2.303,3.071,4.097,3.713,5.313l0,0c0.161,0.387,0.362,0.566,0.417,1.451l0,0c-0.075,1.205-0.561,1.622-0.931,2.107l0,0
	c-0.409,0.461-0.886,0.878-1.449,1.321l0,0c-1.121,0.875-2.579,1.823-4.22,2.78l0,0c-3.29,1.906-7.247,3.808-10.436,4.783l0,0
	c-4.51,1.361-10.881,2.026-16.874,2.035l0,0C144.575,130.658,140.588,130.326,137.542,129.56L137.542,129.56z M164.51,124.799
	c3.667-1.1,9.462-4.103,12.521-6.271l0,0c0.569-0.391,1.052-0.78,1.379-1.071l0,0c-0.205-0.324-0.479-0.731-0.805-1.193l0,0
	c-0.884-1.254-2.153-2.924-3.596-4.751l0,0c-2.887-3.656-6.489-7.956-9.24-11.021l0,0c-1.368-1.542-2.643-2.838-3.276-3.419l0,0
	c-0.227,0.072-0.509,0.173-0.818,0.296l0,0c-0.79,0.311-1.766,0.76-2.682,1.25l0,0c-2.451,1.313-4.724,2.08-7.044,2.082l0,0
	c-2.463,0.005-4.779-0.895-7.073-2.422l0,0c-6.104-4.123-8.803-12.213-8.831-20.119l0,0c0.023-7.57,2.504-15.275,8.2-19.475l0,0
	c2.26-1.671,4.965-2.339,8.433-2.317l0,0c0.167,0,0.332,0.002,0.488,0.006l0,0c2.192,0.039,3.769,0.135,5.306,0.758l0,0
	c1.541,0.636,2.648,1.704,3.889,3.097l0,0c0.877,0.982,1.644,2.078,2.228,3.136l0,0c0.567,1.094,1.021,1.99,1.066,3.247l0,0
	c-0.011,0.541-0.009,1.327-0.576,2.186l0,0c-0.591,0.854-1.488,1.224-2.254,1.397l0,0c-1.571,0.347-3.602,0.342-7.436,0.353l0,0
	c-2.669-0.002-4.604,0.056-5.83,0.266l0,0c-1.265,0.225-1.588,0.492-1.781,0.734l0,0c-0.141,0.184-0.316,0.541-0.445,1.252l0,0
	c-0.176,0.936-0.231,2.408-0.227,4.392l0,0c0,1.124-0.036,2.074-0.036,2.821l0,0c-0.015,1.13,0.12,1.751,0.218,1.888l0,0
	c0.079,0.113,0.094,0.263,1.034,0.559l0,0c1.847,0.561,6.391,0.713,14.74,0.693l0,0c2.818,0.002,6.087-0.007,9.864-0.007l0,0
	c3.057-0.002,5.777,0,8.2,0l0,0c10.294,0.034,15.339-0.162,16.91-0.8l0,0c0.518-0.199,0.531-0.289,0.554-0.311l0,0
	c0.039-0.015,0.182-0.454,0.167-1.471l0,0c0-0.561-0.023-1.261-0.028-2.08l0,0c0.009-5.381-2.551-15.764-5.329-21.411l0,0
	c-5.104-10.661-18.381-21.197-29.853-23.702l0,0c-2.939-0.665-6.871-1.003-10.924-1.001l0,0c-5.781-0.007-11.87,0.697-15.795,1.917
	l0,0c-19.992,6.169-33.275,24.665-33.275,45.176l0,0c0,2.095,0.137,4.21,0.422,6.339l0,0c2.669,19.8,16.148,34.925,35.552,39.882
	l0,0l0-0.002c2.496,0.641,6.279,0.984,10.273,0.98l0,0C154.468,126.668,160.653,125.981,164.51,124.799L164.51,124.799z
	 M255.647,130.074c-4.595-0.016-9.218-0.824-13.616-2.381l0,0l0.668-1.885l-0.668,1.885c-12.541-4.43-22.056-12.352-27.43-23.012
	l0,0c-2.84-5.578-4.495-9.563-5.25-17.853l0,0c-0.784-8.302-0.843-21.097-0.852-45.367l0,0l-0.015-44.171
	c0-0.529,0.214-1.043,0.584-1.415l0,0c0.373-0.372,0.888-0.587,1.415-0.587l0,0h17.55h17.551c1.092,0,1.981,0.878,1.998,1.97l0,0
	l0.266,17.815l0.238,15.922l5.4,0.216c3.37,0.147,6.053,0.478,7.797,1.083l0,0c0.594,0.261,1.157,0.361,1.851,1.308l0,0
	c0.405,0.74,0.334,0.91,0.437,1.329l0,0c0.061,0.377,0.109,0.813,0.158,1.338l0,0c0.095,1.042,0.176,2.418,0.246,4.06l0,0
	c0.14,3.281,0.228,7.613,0.232,12.238l0,0c0,0.225-0.003,0.443,0,0.657l0,0c-0.014,9.049-0.152,13.681-0.713,16.24l0,0
	c-0.229,0.86-0.386,1.609-1.257,2.406l0,0c-0.681,0.522-1.141,0.616-1.759,0.815l0,0c-0.602,0.169-1.295,0.314-2.076,0.442l0,0
	c-1.559,0.262-3.461,0.458-5.409,0.542l0,0l-4.751,0.205l0.18,2.776c0.257,4.025,1.017,6.518,2.299,8.148l0,0
	c1.273,1.633,3.289,2.775,6.838,3.686l0,0l4.668,1.191c0.877,0.223,1.492,1.002,1.507,1.909l0,0l0.265,18.239l0.266,18.24
	c0.009,0.535-0.203,1.057-0.578,1.436l0,0c-0.376,0.381-0.895,0.593-1.43,0.593l0,0L255.647,130.074L255.647,130.074z
	 M255.66,126.075l4.574,0.014l-0.236-16.204l-0.241-16.71l-3.187-0.813c-3.93-0.995-6.963-2.485-9.005-5.103l0,0
	c-2.028-2.615-2.851-5.993-3.136-10.349l0,0l-0.313-4.815c-0.033-0.535,0.15-1.068,0.508-1.466l0,0
	c0.357-0.396,0.869-0.641,1.402-0.662l0,0l6.793-0.295c2.785-0.104,5.654-0.537,6.719-0.877l0,0
	c0.018-0.063,0.036-0.137,0.055-0.221l0,0c0.122-0.531,0.248-1.451,0.34-2.735l0,0c0.189-2.579,0.272-6.644,0.272-12.615l0,0
	c0-0.221,0-0.44,0-0.657l0,0c-0.005-6.425-0.178-12.314-0.415-15.369l0,0c-0.033-0.479-0.076-0.902-0.115-1.221l0,0
	c-0.286-0.084-0.684-0.179-1.156-0.263l0,0c-1.279-0.235-3.109-0.424-5.192-0.505l0,0l-7.294-0.291
	c-1.062-0.043-1.904-0.907-1.92-1.969l0,0l-0.266-17.816L243.612-0.71h-15.579h-15.549l0.015,42.17
	c0.007,24.251,0.08,37.05,0.833,44.992l0,0c0.779,7.958,2.062,10.873,4.842,16.43l0,0c4.882,9.656,13.449,16.874,25.193,21.041l0,0
	l0,0C247.346,125.331,251.525,126.062,255.66,126.075L255.66,126.075z M-10.073,127.631l-0.537-2.218l1.943-0.471l1.943-0.471
	l0.163,0.666l17.172-0.242l16.816-0.237l0.467-44.905l0.488-46.855c0.013-1.098,0.901-1.978,2.001-1.978l0,0l7.489-0.002
	c3.319,0.009,5.351,0.054,7.101,0.458l0,0c1.766,0.392,3.11,1.327,4.274,2.452l0,0c2.251,1.986,3.243,4.591,3.146,7.864l0,0
	c0.013,2.825-0.715,5.369-2.41,7.311l0,0c-1.687,1.941-4.12,3.146-7.153,3.923l0,0c-1.694,0.432-3.524,0.929-4.535,1.222l0,0
	c-0.097,0.463-0.204,1.262-0.281,2.351l0,0C37.831,59,37.75,63.065,37.751,69.105l0,0v15.816l5.285,11.96
	c2.994,6.776,7.232,16.179,9.4,20.855l0,0l3.422,7.382h18.047c4.803,0,9.261-0.081,12.707-0.212l0,0
	c1.881-0.064,3.521-0.165,4.673-0.263l0,0c-0.047-0.14-0.097-0.286-0.149-0.439l0,0c-0.473-1.378-1.171-3.279-2.04-5.559l0,0
	c-1.738-4.559-4.163-10.628-6.883-17.184l0,0c-2.644-6.376-5.062-12.344-6.888-16.973l0,0c-1.836-4.668-3.039-7.834-3.384-9.09l0,0
	c-0.045-0.217-0.103-0.3-0.122-0.786l0,0c0.068-1.04,0.353-1.35,0.635-1.938l0,0c0.304-0.537,0.691-1.122,1.156-1.766l0,0
	c0.931-1.286,2.17-2.804,3.542-4.307l0,0c7.105-7.801,10.599-16.632,10.613-26.706l0,0c-0.002-2.025-0.143-4.097-0.432-6.222l0,0
	C85.732,21.578,77.056,9.396,66.727,4.558l0,0c-4.492-2.121-7.724-3.332-12.649-4.094l0,0c-4.925-0.756-11.581-1.008-22.514-1.006
	l0,0c-3.3-0.002-6.99,0.021-11.14,0.06l0,0l-27.098,0.24l-0.259,60.503C-6.978,70.244-7,79.786-7,88.327l0,0
	c-0.002,19.498,0.113,33.945,0.289,36.139l0,0l-0.013,0.007l-1.943,0.471l-1.943,0.471c-0.109-0.546-0.09-0.74-0.128-1.348l0,0
	c-0.025-0.559-0.047-1.302-0.068-2.232l0,0c-0.041-1.86-0.075-4.461-0.105-7.687l0,0c-0.056-6.448-0.085-15.391-0.088-25.82l0,0
	c0-8.55,0.021-18.096,0.066-28.084l0,0l0.27-62.474c0.004-1.093,0.888-1.981,1.982-1.992l0,0l29.069-0.259
	c4.157-0.036,7.857-0.06,11.177-0.06l0,0c10.99,0,17.792,0.239,23.119,1.053l0,0c5.327,0.809,9.144,2.243,13.754,4.431l0,0
	C80.204,6.56,89.418,19.611,91.299,33.138l0,0c0.311,2.294,0.466,4.546,0.466,6.759l0,0c0.015,11.024-3.946,20.983-11.658,29.405
	l0,0c-1.115,1.22-2.145,2.463-2.932,3.512l0,0c-0.589,0.773-1.052,1.498-1.269,1.888l0,0c0.008,0.024,0.016,0.051,0.025,0.077l0,0
	c0.124,0.381,0.321,0.939,0.576,1.636l0,0c0.512,1.396,1.258,3.35,2.183,5.706l0,0c1.849,4.71,4.407,11.03,7.219,17.809l0,0
	c4.79,11.558,8.632,21.482,9.597,24.802l0,0c0.137,0.535,0.247,0.772,0.272,1.437l0,0c-0.004,0.21-0.013,0.496-0.188,0.898l0,0
	l-0.122,0.233c-0.657,0.878-0.974,0.788-1.203,0.929l0,0c-0.235,0.082-0.419,0.12-0.623,0.158l0,0
	c-0.4,0.077-0.854,0.136-1.413,0.191l0,0c-1.109,0.111-2.609,0.203-4.433,0.284l0,0c-3.641,0.158-8.553,0.257-13.893,0.257l0,0
	H54.581c-0.777,0-1.487-0.454-1.815-1.158l0,0l-3.959-8.542c-2.188-4.719-6.423-14.117-9.43-20.921l0,0L33.922,86.15
	c-0.113-0.254-0.171-0.526-0.171-0.807l0,0V69.105c0.004-7.994,0.12-12.527,0.505-15.085l0,0c0.146-0.871,0.27-1.517,0.662-2.242
	l0,0c0.227-0.396,0.633-0.94,1.417-1.214l0,0c0.826-0.274,3.183-0.916,5.505-1.514l0,0c2.592-0.661,4.187-1.581,5.122-2.666l0,0
	c0.929-1.086,1.419-2.471,1.432-4.691l0,0c-0.096-2.888-0.302-3.328-1.888-4.951l0,0c-1.047-0.956-1.417-1.202-2.453-1.473l0,0
	c-1.055-0.259-2.922-0.354-6.181-0.351l0,0H32.36l-0.467,44.877l-0.488,46.855c-0.011,1.087-0.886,1.963-1.971,1.979l0,0
	l-18.768,0.266l-18.769,0.264c-0.009,0-0.019,0-0.028,0l0,0C-9.053,129.16-9.855,128.532-10.073,127.631L-10.073,127.631z
	 M75.778,74.965l-0.003-0.002C75.775,74.964,75.776,74.964,75.778,74.965L75.778,74.965z M562.77,128.704
	c-0.694-0.068-1.083-0.081-1.691-0.262l0,0c-0.184-0.083-0.402-0.09-0.893-0.537l0,0l1.415-1.414l0.062-0.063l1.354-1.353
	l-1.415,1.415l-1.415,1.414c-0.397-0.43-0.415-0.625-0.485-0.771l0,0c-0.05-0.143-0.068-0.23-0.088-0.31l0,0
	c-0.034-0.156-0.05-0.272-0.066-0.4l0,0c-0.03-0.251-0.054-0.535-0.077-0.893l0,0c-0.045-0.706-0.088-1.683-0.128-2.922l0,0
	c-0.082-2.474-0.154-5.981-0.217-10.281l0,0c-0.122-8.601-0.196-20.356-0.196-33.203l0,0V32.431c0-0.526,0.211-1.042,0.584-1.414
	l0,0c0.374-0.373,0.888-0.587,1.415-0.587l0,0h17.582h17.58c0.533,0,1.042,0.212,1.417,0.591l0,0
	c0.377,0.379,0.584,0.888,0.582,1.421l0,0l-0.255,47.1l-0.252,47.099c-0.007,1.085-0.884,1.972-1.967,1.99l0,0l-16.656,0.266
	c-2.157,0.034-4.239,0.05-6.168,0.05l0,0C568.347,128.946,564.744,128.862,562.77,128.704L562.77,128.704z M563.524,125.99
	L563.524,125.99L563.524,125.99L563.524,125.99z M578.894,124.898l14.697-0.237l0.244-45.141l0.242-45.088h-15.568l-15.581-0.002
	v44.695c-0.002,18.352,0.154,34.487,0.376,42.277l0,0c0.037,1.377,0.084,2.53,0.127,3.34l0,0c0.441,0.03,0.981,0.058,1.599,0.083
	l0,0c1.937,0.076,4.645,0.121,7.761,0.119l0,0C574.699,124.947,576.76,124.932,578.894,124.898L578.894,124.898z M452.574,128.704
	c-0.742-0.066-1.157-0.084-1.764-0.253l0,0c-0.138-0.062-0.288-0.069-0.568-0.258l0,0c-0.132-0.082-0.256-0.179-0.369-0.292l0,0
	c-0.383-0.417-0.406-0.61-0.477-0.756l0,0c-0.052-0.141-0.071-0.23-0.09-0.31l0,0c-0.034-0.156-0.05-0.272-0.066-0.398l0,0
	c-0.032-0.248-0.056-0.526-0.079-0.873l0,0c-0.045-0.689-0.088-1.638-0.129-2.841l0,0c-0.081-2.403-0.154-5.809-0.214-9.981l0,0
	c-0.122-8.344-0.197-19.744-0.199-32.205l0,0c0.004-25.705,0.077-39.33,0.979-47.977l0,0c0.858-8.623,2.816-12.56,6.087-17.553l0,0
	c9.742-15.053,26.901-23.023,43.957-23.025l0,0c12.095,0,24.213,4.016,33.624,12.472l0,0c9.819,8.795,14.866,20.658,14.845,34.608
	l0,0c0,1.117-0.032,2.247-0.095,3.395l0,0c-0.545,10.737-1.688,14.967-6.1,22.208l0,0c-7.355,12.291-20.643,18.859-37.574,18.983
	l0,0l-8.311,0.08c-1.099,0.008-2.002-0.871-2.019-1.97l0,0l-0.268-16.79l-0.266-16.791c-0.017-0.972,0.67-1.816,1.627-1.997l0,0
	l3.193-0.605c2.219-0.422,3.822-1.301,4.856-2.401l0,0c1.031-1.11,1.572-2.442,1.583-4.147l0,0c0-0.495-0.051-1.023-0.153-1.575l0,0
	c-0.321-1.609-0.833-2.415-1.526-2.943l0,0c-0.698-0.533-1.873-0.914-3.836-0.914l0,0c-0.372,0.003-0.76,0.013-1.173,0.043l0,0
	c-1.809,0.113-2.831,0.321-3.433,0.605l0,0c-0.597,0.281-1.025,0.645-1.785,1.648l0,0c-0.451,0.634-0.578,0.781-0.835,1.721l0,0
	c-0.237,0.931-0.453,2.613-0.611,5.602l0,0c-0.321,5.986-0.458,17.162-0.696,38.85l0,0l-0.487,44.591
	c-0.013,1.085-0.884,1.961-1.97,1.978l0,0l-18.121,0.266c-2.333,0.032-4.583,0.047-6.667,0.05l0,0
	C458.61,128.943,454.691,128.86,452.574,128.704L452.574,128.704z M451.295,126.488l0.062-0.061L451.295,126.488L451.295,126.488z
	 M470.054,124.896l16.17-0.237l0.469-42.639c0.377-32.607,0.433-41.233,1.426-45.383l0,0c0.332-1.41,0.961-2.427,1.507-3.136l0,0
	c0.907-1.23,1.939-2.271,3.332-2.897l0,0c1.385-0.625,2.875-0.826,4.822-0.959l0,0c0.503-0.037,0.986-0.052,1.444-0.052l0,0
	c2.434,0.002,4.557,0.458,6.239,1.715l0,0c1.688,1.261,2.644,3.197,3.052,5.397l0,0c0.146,0.779,0.223,1.556,0.226,2.32l0,0
	c0.008,2.619-0.938,5.062-2.669,6.887l0,0c-1.728,1.835-4.154,3.051-7.024,3.594l0,0l-1.541,0.291l0.239,15.108l0.235,14.803
	l6.324-0.061c15.992-0.188,27.584-6.112,34.183-17.043l0,0c4.17-7.039,4.891-9.64,5.535-20.367l0,0
	c0.058-1.078,0.088-2.136,0.088-3.176l0,0c-0.021-13.015-4.549-23.545-13.517-31.634l0,0c-8.6-7.726-19.73-11.443-30.952-11.446l0,0
	c-15.841-0.002-31.715,7.43-40.597,21.195l0,0c-3.146,4.934-4.562,7.527-5.469,15.798l0,0c-0.867,8.246-0.959,21.88-0.955,47.562
	l0,0c-0.002,17.799,0.154,33.448,0.377,41.008l0,0c0.035,1.305,0.081,2.405,0.123,3.187l0,0c0.503,0.033,1.134,0.065,1.865,0.092
	l0,0c2.11,0.077,5.063,0.122,8.459,0.12l0,0C465.511,124.945,467.742,124.93,470.054,124.896L470.054,124.896z M281.637,128.704
	c-0.695-0.068-1.085-0.081-1.691-0.262l0,0c-0.184-0.083-0.402-0.09-0.893-0.534l0,0l1.413-1.417l0.122-0.123l0,0l-0.122,0.123
	l-1.413,1.417c-0.485-0.544-0.451-0.732-0.532-0.901l0,0c-0.05-0.158-0.071-0.268-0.092-0.379l0,0
	c-0.038-0.214-0.063-0.422-0.088-0.672l0,0c-0.05-0.492-0.09-1.133-0.131-1.935l0,0c-0.081-1.604-0.153-3.84-0.214-6.571l0,0
	c-0.119-5.462-0.192-12.896-0.192-21.011l0,0c0-0.154-0.003-0.319,0-0.478l0,0c0.03-21.826,0.314-31.104,1.38-35.255l0,0
	c4.138-15.712,13.79-26.417,27.932-30.666l0,0c3.492-1.033,10.114-1.516,15.646-1.534l0,0c1.88,0.002,3.607,0.064,5.032,0.201l0,0
	c1.471,0.184,2.455,0.244,3.608,0.9l0,0c0.899,0.621,1.113,1.323,1.322,1.954l0,0c0.191,0.659,0.305,1.39,0.396,2.325l0,0
	c0.18,1.861,0.253,4.532,0.255,8.437l0,0c0,2.189-0.026,4.76-0.068,7.78l0,0L333.04,68.09c-0.009,0.548-0.242,1.072-0.648,1.443l0,0
	c-0.405,0.372-0.946,0.561-1.494,0.521l0,0l-4.704-0.338c-0.465-0.034-0.896-0.052-1.297-0.049l0,0
	c-1.758,0.006-2.834,0.297-3.759,0.879l0,0c-0.913,0.578-1.807,1.575-2.81,3.309l0,0c-0.002,0.001-0.002,0.003-0.002,0.005l0,0
	c-0.018,0.06-0.053,0.182-0.084,0.347l0,0c-0.07,0.332-0.148,0.833-0.225,1.469l0,0c-0.154,1.277-0.303,3.097-0.435,5.412l0,0
	c-0.271,4.632-0.49,11.252-0.649,19.712l0,0l-0.487,25.868c-0.021,1.078-0.888,1.943-1.97,1.962l0,0l-16.652,0.266
	c-2.158,0.034-4.24,0.05-6.169,0.05l0,0C287.213,128.946,283.609,128.862,281.637,128.704L281.637,128.704z M297.76,124.898
	l14.723-0.235l0.451-23.939c0.294-14.909,0.715-23.971,1.392-27.329l0,0c0.12-0.518,0.188-0.898,0.492-1.459l0,0
	c1.184-2.06,2.468-3.676,4.171-4.763l0,0c1.705-1.089,3.701-1.513,5.908-1.505l0,0c0.514,0,1.042,0.021,1.586,0.061l0,0l2.59,0.186
	l0.234-15.867c0.045-3.008,0.069-5.563,0.069-7.723l0,0c0-3.154-0.052-5.473-0.159-7.091l0,0c-0.061-1.096-0.182-1.894-0.272-2.319
	l0,0c-0.02-0.005-0.04-0.009-0.062-0.014l0,0c-0.35-0.077-0.863-0.151-1.477-0.212l0,0c-1.229-0.119-2.857-0.182-4.645-0.18l0,0
	c-5.2-0.02-11.942,0.563-14.486,1.359l0,0c-12.809,3.928-21.262,13.163-25.227,27.871l0,0c-0.83,2.968-1.256,12.555-1.245,34.235
	l0,0c-0.002,0.146-0.002,0.302,0,0.465l0,0c-0.002,11.388,0.146,21.441,0.357,26.462l0,0c0.028,0.713,0.063,1.342,0.097,1.839l0,0
	c0.448,0.031,1.002,0.061,1.637,0.086l0,0c1.938,0.076,4.646,0.121,7.761,0.119l0,0C293.564,124.947,295.625,124.932,297.76,124.898
	L297.76,124.898z M379.456,94.005c-5.548-2.737-8.806-7.915-8.76-13.955l0,0c0-0.49,0.021-0.984,0.062-1.48l0,0
	c0.347-4.395,1.922-8.131,4.557-10.766l0,0c2.628-2.64,6.277-4.073,10.356-4.063l0,0c0.705,0,1.42,0.043,2.139,0.124l0,0
	c8.858,0.989,13.869,8.506,13.819,15.864l0,0c0.028,5.633-2.905,11.473-9.031,14.391l0,0c-0.021,0.012-0.043,0.022-0.064,0.032l0,0
	c-2.243,1.062-4.304,1.687-6.436,1.687l0,0C383.884,95.841,381.759,95.166,379.456,94.005L379.456,94.005z M385.671,67.742
	c-3.182,0.009-5.671,1.047-7.527,2.892l0,0c-1.849,1.85-3.105,4.605-3.4,8.26l0,0c-0.032,0.394-0.047,0.781-0.047,1.157l0,0
	c0.045,4.659,2.198,8.136,6.558,10.381l0,0c2.008,1.006,3.456,1.406,4.844,1.408l0,0c1.318,0,2.729-0.367,4.649-1.266l0,0
	c0.023-0.013,0.048-0.024,0.071-0.036l0,0c4.696-2.245,6.785-6.455,6.813-10.808l0,0c-0.051-5.706-3.643-11.139-10.271-11.89l0,0
	c-0.567-0.064-1.114-0.099-1.641-0.099l0,0C385.703,67.742,385.688,67.742,385.671,67.742L385.671,67.742z M578.498,25.602
	c-2.812-0.025-6.556-0.831-9.147-1.963l0,0c-0.025-0.011-0.051-0.021-0.075-0.032l0,0c-6.222-2.744-9.724-8.183-10.11-15.387l0,0
	c-0.039-0.604-0.061-1.198-0.061-1.78l0,0c-0.083-6.365,2.733-11.256,8.393-15.16l0,0c1.774-1.258,3.262-2.14,5.002-2.655l0,0
	c1.74-0.512,3.546-0.623,5.999-0.623l0,0c2.453,0,4.262,0.111,5.999,0.623l0,0c1.74,0.516,3.228,1.397,5.002,2.655l0,0
	c5.657,3.904,8.472,8.795,8.39,15.16l0,0c0,0.584-0.021,1.171-0.058,1.78l0,0c-0.327,5.171-2.397,9.602-5.828,12.662l0,0
	c-3.42,3.063-8.11,4.72-13.474,4.72l0,0C578.519,25.602,578.508,25.602,578.498,25.602L578.498,25.602z M570.104,21.786v0.005
	V21.786l0.828-1.821L570.104,21.786L570.104,21.786z M570.932,19.964c1.805,0.848,5.571,1.663,7.566,1.638l0,0
	c4.578-0.005,8.238-1.377,10.838-3.699l0,0c2.595-2.333,4.215-5.656,4.502-9.929l0,0c0.031-0.541,0.051-1.053,0.051-1.534l0,0
	c-0.083-5.287-1.729-8.264-6.703-11.896l0,0c-1.661-1.176-2.699-1.751-3.822-2.083l0,0C582.239-7.875,580.842-8,578.498-8l0,0
	c-2.344,0-3.741,0.126-4.865,0.462l0,0c-1.123,0.332-2.161,0.907-3.822,2.083l0,0c-4.977,3.63-6.624,6.608-6.708,11.896l0,0
	c0,0.485,0.02,0.991,0.054,1.521l0,0C563.641,14.154,565.952,17.619,570.932,19.964L570.932,19.964L570.932,19.964L570.932,19.964z"
	/>
</svg>
